<?xml version="1.0" encoding="utf-8"?>
<!-- Generator: Adobe Illustrator 16.0.3, SVG Export Plug-In . SVG Version: 6.00 Build 0)  -->
<!DOCTYPE svg PUBLIC "-//W3C//DTD SVG 1.1//EN" "http://www.w3.org/Graphics/SVG/1.1/DTD/svg11.dtd">
<svg version="1.1" id="Warstwa_1" xmlns="http://www.w3.org/2000/svg" xmlns:xlink="http://www.w3.org/1999/xlink" x="0px" y="0px"
	 width="309.361px" height="56.391px" viewBox="0 0 309.361 56.391" enable-background="new 0 0 309.361 56.391"
	 xml:space="preserve">
<g>
	<g>
		<path fill="#F0F0F0" d="M98.614,30.16h-17.34v9.952c0,1.056-0.83,1.885-1.885,1.885c-1.056,0-1.885-0.829-1.885-1.885V17.947
			c0-1.056,0.828-1.885,1.885-1.885c1.056,0,1.885,0.829,1.885,1.885v8.596h17.34v-8.596c0-1.056,0.83-1.885,1.885-1.885
			c1.057,0,1.886,0.829,1.886,1.885v22.166c0,1.056-0.829,1.885-1.886,1.885c-1.055,0-1.885-0.829-1.885-1.885V30.16z"/>
		<path fill="#F0F0F0" d="M117.466,40.113c0,1.056-0.829,1.885-1.885,1.885s-1.885-0.829-1.885-1.885V17.947
			c0-1.056,0.829-1.885,1.885-1.885s1.885,0.829,1.885,1.885V40.113z"/>
		<path fill="#F0F0F0" d="M145.138,30.839c0-1.056,0.829-1.811,1.884-1.811c1.056,0,1.885,0.828,1.885,1.885v5.956
			c0,0.453-0.226,1.131-0.604,1.507c-2.413,2.413-5.654,3.845-9.35,3.845c-7.313,0-13.193-5.88-13.193-13.193
			s5.881-13.194,13.193-13.194c3.694,0,6.937,1.433,9.35,3.845c0.754,0.754,0.754,1.885,0,2.641
			c-0.753,0.753-1.96,0.828-2.714,0.074c-1.733-1.733-3.995-2.789-6.635-2.789c-5.201,0-9.423,4.223-9.423,9.424
			c0,5.202,4.223,9.425,9.423,9.425c2.413,0,4.523-0.829,6.184-2.263V30.839L145.138,30.839z"/>
		<path fill="#F0F0F0" d="M179.821,30.16H162.48v9.952c0,1.056-0.829,1.885-1.884,1.885c-1.057,0-1.885-0.829-1.885-1.885V17.947
			c0-1.056,0.828-1.885,1.885-1.885c1.055,0,1.884,0.829,1.884,1.885v8.596h17.341v-8.596c0-1.056,0.829-1.885,1.885-1.885
			s1.886,0.829,1.886,1.885v22.166c0,1.056-0.831,1.885-1.886,1.885c-1.056,0-1.885-0.829-1.885-1.885V30.16z"/>
		<path fill="#F0F0F0" d="M206.062,29.934l-7.389-7.463v17.642c0,1.056-0.829,1.885-1.885,1.885s-1.885-0.829-1.885-1.885V17.947
			c0-1.056,0.829-1.885,1.885-1.885c0.753,0,1.132,0.227,1.885,0.98l9.198,9.349l9.198-9.349c0.753-0.754,1.131-0.98,1.884-0.98
			c1.057,0,1.886,0.829,1.886,1.885v22.166c0,1.056-0.829,1.885-1.886,1.885c-1.055,0-1.884-0.829-1.884-1.885V22.471l-7.238,7.463
			c-0.754,0.754-1.131,0.98-1.885,0.98S206.816,30.688,206.062,29.934z"/>
		<path fill="#F0F0F0" d="M277.015,16.213c4.523,0,8.219,3.694,8.219,8.218c0,4.524-3.694,8.218-8.219,8.218h-9.877v7.54
			c0,1.056-0.829,1.81-1.884,1.81c-1.057,0-1.886-0.829-1.886-1.885V18.097c0-1.055,0.829-1.884,1.886-1.884H277.015z
			 M267.138,19.831v9.198h9.877c2.639,0,4.447-2.187,4.447-4.599s-1.81-4.6-4.447-4.6H267.138z"/>
		<path fill="#F0F0F0" d="M297.299,26.39c0-9.425,5.805-10.556,10.179-10.556c1.055,0,1.884,0.829,1.884,1.885
			s-0.829,1.885-1.884,1.885c-3.544,0-6.409,0.753-6.409,6.785v5.278c0,9.423-5.805,10.554-10.179,10.554
			c-1.055,0-1.884-0.829-1.884-1.884c0-1.056,0.829-1.885,1.884-1.885c3.545,0,6.409-0.754,6.409-6.785V26.39z"/>
	</g>
	<path fill="#F0F0F0" d="M244.446,17.93l10.51,20.645c0.221,0.443,0.442,1.036,0.442,1.554c0,1.036-0.666,1.629-1.703,1.629
		c-0.737,0-1.479-0.223-1.998-1.26l-3.254-6.438h-13.545l-3.182,6.438c-0.517,1.037-1.258,1.26-1.995,1.26
		c-1.037,0-1.702-0.593-1.702-1.629c0-0.52,0.22-1.11,0.442-1.554l10.506-20.645c0.668-1.408,2.001-1.629,2.739-1.629
		C242.447,16.301,243.777,16.522,244.446,17.93z M236.677,30.508h9.988l-4.958-9.99L236.677,30.508z"/>
</g>
<path fill="#31436B" d="M13.308,14.44l11.42,16.646l-0.002,0.003l0.007,0.006l0.003,0.003v-0.001l16.65,11.421l-11.43-16.66
	L13.298,14.43L13.308,14.44z M27.342,28.472L27.342,28.472l-7.017-7.017L27.342,28.472z"/>
<path fill="#31436B" d="M41.374,14.44L24.729,25.861l-0.001-0.002l-0.004,0.007l-0.004,0.003l0,0l-11.42,16.649l16.656-11.43
	l11.429-16.66L41.374,14.44z M27.342,28.472L27.342,28.472l7.018-7.017L27.342,28.472z"/>
<polygon fill="#659AA0" points="22.951,28.213 28.204,0.009 28.203,28.211 "/>
<polygon fill="#659AA0" points="33.457,28.196 28.204,56.399 28.204,28.196 "/>
<polygon fill="#A4EDBA" points="33.457,28.196 28.203,-0.009 28.204,28.196 "/>
<polygon fill="#A4EDBA" points="22.95,28.195 28.204,56.399 28.204,28.196 "/>
<polygon fill="#76758E" points="23.793,32.622 0.017,28.196 28.22,28.196 "/>
<polygon fill="#76758E" points="32.635,23.781 56.407,28.195 28.204,28.196 "/>
<polygon fill="#8086E8" points="23.767,23.833 0,28.196 28.204,28.196 "/>
<polygon fill="#8086E8" points="32.635,32.609 56.407,28.195 28.204,28.196 "/>
</svg>
